<?xml version="1.0" encoding="UTF-8"?><svg xmlns="http://www.w3.org/2000/svg" width="72" height="26" viewBox="0 0 72 26"><defs><style>.a{fill:#fee7bd;}.b{isolation:isolate;}</style></defs><g class="b"><path class="a" d="M71.2,.1c-.3,1.2-1.3,2.1-1.2,3.5,0,.9-.1,1.8,.1,2.6,0,.4-.3,.3-.6,.5-.7,.5,.4,.9,0,1.6-.7,.4,.2,.8,.4,1.2,0,.2,0,.5,0,.8-1.3,2.5,1.4,3.8-2.9,4.4,.8,0,1.6,0,2.3,.2,0,.2,.2,0,.3,.2,.2,.2,0,.4,0,.6,0,.4,.1,.6,.2,1,0,.4-.2,.7,0,1.1,.1,.3,.2,.6,.3,.9,0,.1,0,.2-.1,.3-.1,.7,.5,.8,.5,1.3,0,.3-.2,.2-.3,.5,0,.5,0,1,0,1.5-.1,.6,0,1.3,.3,1.8,.1,.3,0,.5,.2,.8,0,.4,.6,.6,.8,.9-23.8-.5-47.6-.2-71.5,0,.8-1,1.3-2.2,2-3.2,0-.6,.2-1.3-.2-1.8-.2-.4,.3-.8,0-1.2-.2-.4-.7-.7-.7-1.2,.3-.3,.7-.5,.9-.8-.5-.8-1.3-1.5-.8-2.6,.3-.5,.3-.6,0-.9-.3-.3-.2-.3,0-.6,.4-.5,1-.9,1.3-1.4-.6-.8-.2-1.9-.6-2.8-.8-.5,0-1,.6-.9,0-.3-.4-.7-.4-1.1,0-.3,0-.5,0-.8-.9-1.1-1.2-1,0-2.2,0-.2-.2-.2-.3-.4,0-.3,.1-.4,.2-.6,.1-.3,.2,0,0-.5C1.9,1.8,1.3,1.1,.9,.1H71.2Z"/></g></svg>