<?xml version="1.0" encoding="UTF-8"?><svg id="b" xmlns="http://www.w3.org/2000/svg" width="48" height="48" viewBox="0 0 48 48"><defs><style>.e{opacity:.1;}.f{fill:#fff;}.g{fill:#773dbd;}</style></defs><path class="e" d="M39.91,33.75c1.01-2.21,1.59-4.66,1.59-7.25,0-9.66-7.84-17.5-17.5-17.5S6.5,16.84,6.5,26.5s7.84,17.5,17.5,17.5c2.7,0,5.25-.63,7.54-1.73h8.37v-8.52Z"/><path class="g" d="M39.91,31.25c1.01-2.21,1.59-4.66,1.59-7.25,0-9.66-7.84-17.5-17.5-17.5S6.5,14.34,6.5,24s7.84,17.5,17.5,17.5c2.7,0,5.25-.63,7.54-1.73h8.37v-8.52Z"/><path class="f" d="M22.85,17.99c-.82-.66-.82-2.23,0-2.88,.75-.71,2.54-.71,3.3,0,.84,.66,.83,2.22,.01,2.88-.75,.73-2.56,.73-3.31,0Zm.19,13.47c-.39-.32-.59-.79-.59-1.43v-7.97c0-.63,.2-1.11,.59-1.42,.74-.63,2.2-.63,2.94,0,.39,.32,.59,.79,.59,1.42v7.97c0,.63-.2,1.11-.59,1.43-.74,.63-2.2,.63-2.94,0Z"/></svg>