<?xml version="1.0" encoding="UTF-8"?><svg id="d" xmlns="http://www.w3.org/2000/svg" width="48" height="48" viewBox="0 0 48 48"><defs><style>.e{fill:#e33939;}</style></defs><path class="e" d="M26.2,25c6.7-6.7,12.5-10.8,12.5-10.8,0,0-3-4.5-7.7-3.7-2.1,1-5.8,4.8-9.5,9.2-5.1-6.2-7.8-11.1-7.8-11.1,0,0-3.3,1.8-2.7,6.5,.9,2,3.5,5.7,6.5,9.4-2.5,3.3-4.8,6.4-6.1,8.5,0-.1-2.1,3.5-2.1,3.5,.1,1.3,4.2,2.8,4.9,2.9,2.3-3.6,5-6.9,7.6-9.9,2.5,2.6,5,4.9,7,6.3-.1,0,2.6,1.7,2.6,1.7,1.3,0,4.4-3.2,4.5-3.9-3.8-2.7-7.1-5.7-10-8.6Z"/></svg>