<?xml version="1.0" encoding="UTF-8"?><svg id="d" xmlns="http://www.w3.org/2000/svg" width="250" height="116" xmlns:xlink="http://www.w3.org/1999/xlink" viewBox="0 0 250 116"><defs><style>.g{fill:url(#f);}.h{fill:url(#e);}.i{fill:#848484;}.j{fill:#d40a20;}.k{fill:#4a4a49;}</style><linearGradient id="e" x1="10.9" y1="52.7" x2="58.4" y2="52.7" gradientTransform="matrix(1, 0, 0, 1, 0, 0)" gradientUnits="userSpaceOnUse"><stop offset="0" stop-color="#bb0e1a"/><stop offset="0" stop-color="#c20c1b"/><stop offset=".2" stop-color="#d40a20"/><stop offset=".5" stop-color="#e4735f"/><stop offset=".5" stop-color="#dd6354"/><stop offset=".5" stop-color="#d34942"/><stop offset=".5" stop-color="#ca3333"/><stop offset=".5" stop-color="#c32227"/><stop offset=".6" stop-color="#be161f"/><stop offset=".6" stop-color="#bb0f1b"/><stop offset=".7" stop-color="#bb0e1a"/><stop offset=".7" stop-color="#c32227"/><stop offset=".8" stop-color="#d8564b"/><stop offset=".8" stop-color="#e4735f"/><stop offset="1" stop-color="#bb0e1a"/></linearGradient><linearGradient id="f" x1="10.9" y1="35.6" y2="35.6" xlink:href="#e"/></defs><g><path class="i" d="M147.8,86.2h1.1l2.7,6.9,2.5-6.9h1l-3.5,9.3c-.6,1.4-.9,1.8-2.1,1.8-.4,0-.6,0-.8,0v-.8c.2,0,.5,0,.7,0,.9,0,1.1-.5,1.4-1.3l.3-.9-3.2-8.1Z"/><path class="i" d="M140.3,86.2h1v1.4h0c.4-1,1.4-1.6,2.6-1.6,2.3,0,3,1.2,3,3.1v5.2h-1v-5.1c0-1.4-.5-2.5-2.1-2.5s-2.5,1.2-2.5,2.8v4.7h-1v-8.1Z"/><path class="i" d="M132,88.6c0-1.9,1.4-2.7,3.3-2.7s3,.4,3,2.6v4.3c0,.4,.2,.6,.6,.6s.2,0,.3,0v.8c-.2,0-.4,0-.6,0-1,0-1.2-.6-1.2-1.4h0c-.7,1.1-1.4,1.6-3,1.6s-2.7-.7-2.7-2.4,2.2-2.4,4.4-2.6c.8,0,1.3-.2,1.3-1.1,0-1.3-1-1.7-2.1-1.7s-2.1,.6-2.2,1.9h-1Zm5.3,1.2h0c-.1,.2-.6,.3-.8,.4-1.7,.3-3.8,.3-3.8,1.9s.9,1.6,1.8,1.6c1.5,0,2.8-1,2.8-2.5v-1.3Z"/><path class="i" d="M123.1,86.2h.9v1.5h0c.5-1.1,1.6-1.8,2.9-1.8,2.5,0,3.6,2,3.6,4.3s-1.2,4.3-3.6,4.3-2.4-.6-2.8-1.8h0v4.5h-1v-11.1Zm3.8,.6c-2.2,0-2.8,1.6-2.8,3.5s.7,3.5,2.8,3.5,2.7-1.8,2.7-3.5-.8-3.5-2.7-3.5Z"/><path class="i" d="M110,86.2h.9v1.4h0c.5-1,1.4-1.6,2.7-1.6s2,.5,2.3,1.6c.5-1.1,1.5-1.6,2.6-1.6,1.8,0,2.7,.9,2.7,2.8v5.5h-1v-5.4c0-1.3-.5-2.1-1.9-2.1s-2.2,1.4-2.2,2.9v4.6h-1v-5.5c0-1.1-.4-2-1.7-2s-2.4,1.3-2.4,3v4.5h-1v-8.1Z"/><path class="i" d="M108.6,90.2c0,2.3-1.4,4.3-3.8,4.3s-3.8-2-3.8-4.3,1.4-4.3,3.8-4.3,3.8,2,3.8,4.3Zm-6.7,0c0,1.7,.9,3.5,2.8,3.5s2.8-1.7,2.8-3.5-.9-3.5-2.8-3.5-2.8,1.7-2.8,3.5Z"/><path class="i" d="M98.6,86.4c-.4-1.7-1.8-2.7-3.4-2.7-3,0-4.2,2.5-4.2,4.9s1.3,4.9,4.2,4.9,3.4-1.6,3.6-3.6h1.1c-.3,2.7-2,4.5-4.7,4.5s-5.3-2.8-5.3-5.8,1.8-5.8,5.3-5.8,4.2,1.3,4.5,3.6h-1.1Z"/><path class="j" d="M124.8,75.5c-.3,0-.5-.2-.5-.5v-4.1c0-.5,0-1-.3-1.3-.2-.3-.4-.6-.7-.8-.3-.2-.6-.3-.9-.4-.8-.2-1.6-.1-2.3,0-.4,.1-.7,.3-1,.5-.3,.2-.5,.5-.7,.8-.2,.3-.3,.7-.3,1.2h1c0-.6,.2-1.1,.6-1.3,.4-.3,.9-.4,1.5-.4s.5,0,.8,0c.2,0,.5,.1,.6,.2,.2,.1,.3,.3,.4,.5,.1,.2,.2,.5,.2,.8s0,.4,0,.5c0,.1-.1,.2-.2,.3,0,0-.2,.1-.4,.1-.1,0-.3,0-.5,0-.5,0-1,.1-1.5,.2-.5,0-1,.2-1.4,.3-.4,.2-.7,.4-1,.7-.2,.3-.4,.8-.4,1.3s0,.7,.2,1c.1,.3,.3,.5,.6,.7,.2,.2,.5,.3,.8,.4,.3,0,.7,.1,1,.1s.7,0,1-.1c.3,0,.5-.2,.8-.3,.2-.1,.4-.3,.6-.5,.2-.2,.3-.4,.5-.6,0,.2,0,.3,0,.5,0,.2,0,.3,.2,.4,0,.1,.2,.2,.4,.3,.2,0,.3,0,.6,0s.2,0,.3,0c0,0,.2,0,.3,0h0v-.9h0c0,0-.2,0-.3,0Zm-1.6-3.3v1.1c0,.4,0,.7-.2,1-.1,.3-.3,.6-.6,.8-.2,.2-.5,.4-.9,.5-.5,.2-1.1,.2-1.7,0-.2,0-.4-.2-.5-.3-.2-.1-.3-.3-.4-.5,0-.2-.1-.4-.1-.6,0-.4,.1-.7,.3-.9,.2-.2,.5-.4,.9-.5,.3-.1,.7-.2,1.2-.2,.4,0,.8-.1,1.2-.2,.1,0,.3,0,.5-.1,.1,0,.2-.1,.3-.2Z"/><path class="j" d="M131.7,73.6c0,.3-.1,.6-.2,.9-.1,.3-.3,.5-.5,.7-.2,.2-.4,.3-.7,.5-.3,.1-.5,.2-.8,.2-.4,0-.8,0-1.2-.3-.3-.2-.6-.4-.8-.7-.2-.3-.4-.7-.5-1.1-.1-.4-.2-.8-.2-1.2s0-.8,.2-1.2c.1-.4,.3-.7,.5-1.1,.2-.3,.5-.6,.8-.7,.3-.2,.7-.3,1.2-.3s1.1,.2,1.5,.5c.3,.3,.6,.8,.7,1.4h1c-.1-.9-.5-1.6-1.1-2.1-.6-.4-1.3-.7-2.2-.7s-1.1,.1-1.6,.3c-.5,.2-.9,.5-1.2,.9-.3,.4-.6,.8-.7,1.3-.2,.5-.2,1-.2,1.6s0,1.1,.2,1.6c.2,.5,.4,.9,.7,1.3,.3,.4,.7,.7,1.2,.9,.5,.2,1,.3,1.6,.3,.9,0,1.6-.3,2.2-.8,.6-.5,.9-1.3,1.1-2.2h-1Z"/><path class="j" d="M142.2,68.3c-.5,0-1,.1-1.5,.4-.4,.2-.8,.6-1,1.1-.2-.5-.4-.8-.8-1.1-.4-.3-.9-.4-1.4-.4s-1.2,.1-1.6,.4c-.4,.3-.7,.6-1,1.1v-1.3h-1v7.9h1v-4.4c0-.4,0-.8,.1-1.1,0-.3,.2-.6,.4-.9,.2-.3,.4-.5,.7-.6,.3-.1,.6-.2,1-.2s.5,0,.8,.1c.2,0,.4,.2,.5,.4,.1,.2,.2,.4,.3,.6,0,.2,0,.5,0,.7v5.3h1v-4.5c0-.4,0-.7,0-1,0-.3,.2-.6,.3-.9,.2-.3,.4-.5,.6-.6,.3-.2,.6-.2,1-.2,.7,0,1.1,.2,1.4,.5,.3,.3,.4,.8,.4,1.4v5.3h1v-5.3c0-1.8-.9-2.8-2.6-2.8Z"/><polygon class="j" points="146.9 76.4 147.5 76.4 147.9 76.4 147.9 74.9 147.9 73.6 147.9 72.2 147.9 71.1 147.9 69.8 147.9 69.2 147.9 68.5 147.6 68.5 146.9 68.5 146.9 69.2 146.9 70.6 146.9 72.1 146.9 73.3 146.9 74.7 146.9 75.7 146.9 76.4"/><polygon class="j" points="150 76.4 150.4 76.4 151 76.4 151 75.7 151 74.6 151 73.5 151 72.8 151 71.8 151 70.7 151 69.9 151 69 151 68 151 67 151 66.4 151 65.5 150.6 65.5 150 65.5 150 66.1 150 66.8 150 67.8 150 68.7 150 70 150 70.8 150 71.8 150 72.7 150 73.4 150 74.2 150 74.9 150 75.5 150 76.4"/><polygon class="j" points="153.1 76.4 153.6 76.4 154.1 76.4 154.1 75.2 154.1 74.4 154.1 73.1 154.1 71.9 154.1 71 154.1 69.8 154.1 68.8 154.1 68 154.1 67.1 154.1 66.3 154.1 65.5 153.6 65.5 153.1 65.5 153.1 66.2 153.1 66.9 153.1 67.9 153.1 68.3 153.1 69.5 153.1 70.5 153.1 71.1 153.1 71.7 153.1 72.4 153.1 73.1 153.1 73.7 153.1 74.4 153.1 74.9 153.1 75.4 153.1 76.4"/><path class="j" d="M162.4,75.5c-.3,0-.5-.2-.5-.5v-4.1c0-.5,0-1-.3-1.3-.2-.3-.4-.6-.7-.8-.3-.2-.6-.3-.9-.4-.8-.2-1.6-.1-2.3,0-.4,.1-.7,.3-1,.5-.3,.2-.5,.5-.7,.8-.2,.3-.3,.7-.3,1.2h1c0-.6,.2-1.1,.6-1.3,.4-.3,.9-.4,1.5-.4s.5,0,.8,0c.2,0,.5,.1,.6,.2,.2,.1,.3,.3,.4,.5,.1,.2,.2,.5,.2,.8s0,.4,0,.5c0,.1-.1,.2-.2,.3,0,0-.2,.1-.4,.1-.2,0-.3,0-.5,0-.5,0-1,.1-1.5,.2-.5,0-1,.2-1.4,.3-.4,.2-.7,.4-1,.7-.2,.3-.4,.8-.4,1.3s0,.7,.2,1,.3,.5,.6,.7c.2,.2,.5,.3,.8,.4,.3,0,.7,.1,1,.1s.7,0,1-.1c.3,0,.5-.2,.8-.3,.2-.1,.4-.3,.6-.5,.2-.2,.3-.4,.5-.6,0,.2,0,.3,0,.5,0,.2,0,.3,.2,.4,0,.1,.2,.2,.4,.3,.2,0,.3,0,.6,0s.2,0,.3,0c0,0,.2,0,.3,0h0v-.9h0c0,0-.2,0-.3,0Zm-1.6-3.3v1.1c0,.4,0,.7-.2,1-.1,.3-.3,.6-.6,.8-.2,.2-.5,.4-.9,.5-.5,.2-1.1,.2-1.7,0-.2,0-.4-.2-.5-.3-.2-.1-.3-.3-.4-.5,0-.2-.1-.4-.1-.6,0-.4,.1-.7,.3-.9,.2-.2,.5-.4,.9-.5,.3-.1,.7-.2,1.2-.2,.4,0,.8-.1,1.2-.2,.1,0,.3,0,.5-.1,.1,0,.3-.1,.3-.2Z"/><path class="j" d="M170.3,70.1c0-.4-.3-.7-.5-1-.2-.3-.5-.5-.9-.6-.4-.1-.8-.2-1.4-.2s-1.1,.1-1.5,.4c-.4,.3-.8,.6-.9,1v-1.2h-1v7.9h1v-4.6c0-.4,0-.7,.2-1.1,.1-.3,.3-.6,.5-.8,.2-.2,.5-.4,.7-.6,.3-.1,.6-.2,1-.2s.7,0,.9,.2c.2,.1,.4,.3,.6,.5,.1,.2,.3,.5,.3,.7,0,.3,0,.6,0,.9v4.9h1v-5.1c0-.5,0-.9-.1-1.3Z"/><path class="j" d="M147.4,65.5c-.4,0-.7,.3-.7,.7s.3,.6,.7,.6,.7-.3,.7-.6-.3-.7-.7-.7Z"/><polygon class="k" points="176.3 71.1 182.3 71.1 182.3 70.2 176.3 70.2 176.3 66.3 182.7 66.3 182.7 65.3 175.1 65.3 175.1 76.3 182.8 76.3 182.8 75.3 176.3 75.3 176.3 71.1"/><path class="k" d="M189.8,69.7c-.4-1-1.5-1.6-2.7-1.6-2.6,0-3.6,2.3-3.6,4.2s.3,2.2,.9,2.9c.6,.8,1.6,1.3,2.7,1.3s2.3-.7,2.8-1.6v1.4h1v-11h-1.1v4.4Zm0,2.6c0,1.6-.7,3.3-2.7,3.3s-2.5-.9-2.5-3.3,1.4-3.3,2.5-3.3c2,0,2.7,1.7,2.7,3.3Z"/><path class="k" d="M198,72.5c0,1.4-.6,3.1-2.3,3.1s-2-.6-2.1-2.1v-5.2h-1.1v5.1c0,2,.9,3,2.8,3s2.2-.6,2.7-1.5v1.3h1v-8h-1.1v4.2Z"/><path class="k" d="M206.3,73.4c-.1,1.3-1.1,2.2-2.2,2.2-1.9,0-2.7-1.7-2.7-3.3s.8-3.3,2.7-3.3,1.9,.6,2.2,1.8h1.1c-.2-1.7-1.4-2.8-3.2-2.8s-2.1,.4-2.8,1.3c-.6,.8-1,1.8-1,3s.3,2.2,1,3c.7,.8,1.6,1.3,2.8,1.3,1.8,0,3-1.2,3.3-3.1h-1.1Z"/><path class="k" d="M215.2,75.4c-.3,0-.5-.2-.5-.5v-4.2c0-1.7-1-2.6-2.9-2.6s-3.1,1-3.2,2.7h1.1c0-1.5,1.3-1.8,2.1-1.8,1.4,0,2,.5,2,1.6s-.4,.9-1.2,1c-.1,0-.3,0-.4,0-2,.2-3.8,.4-3.8,2.5s1,2.3,2.7,2.3,2.2-.6,2.8-1.5c0,.8,.2,1.3,1.2,1.3s.4,0,.6,0h0v-.9h0c0,0-.2,0-.3,0Zm-1.6-3.3v1.1c0,.6-.2,1.2-.6,1.6-.5,.5-1.2,.8-2,.8s-1.7-.5-1.7-1.5,1.4-1.4,2.8-1.6c.3,0,.6,0,.8-.1,.2,0,.6-.1,.8-.3Z"/><path class="k" d="M218.3,66h-1.1v2.4h-1.4v.9h1.4v5.3c0,.7,.1,1.1,.4,1.4,.3,.3,.7,.4,1.4,.4s.3,0,.4,0c.1,0,.3,0,.4,0h0v-.9h0c-.3,0-.5,0-.8,0-.6,0-.7-.3-.7-1v-5.2h1.6v-.9h-1.6v-2.4Z"/><path class="k" d="M227.6,68.1c-1.2,0-2.1,.4-2.8,1.3-.6,.8-1,1.8-1,3s.3,2.2,1,3c.7,.8,1.6,1.3,2.8,1.3s2.1-.4,2.8-1.3c.6-.8,1-1.8,1-3s-.3-2.2-1-3c-.7-.8-1.6-1.3-2.8-1.3Zm2.7,4.2c0,1.6-.8,3.3-2.7,3.3s-2.7-1.7-2.7-3.3,.8-3.3,2.7-3.3,2.7,1.7,2.7,3.3Z"/><path class="k" d="M236.1,68.1c-1.1,0-2.1,.6-2.5,1.5v-1.2h-1.1v8h1.1v-4.6c0-1.6,1-2.6,2.4-2.6s1.9,.7,1.9,2.3v4.9h1.1v-5.1c0-2.1-.9-3.1-2.9-3.1Z"/><polygon class="k" points="221.4 76.3 221.9 76.3 222.5 76.3 222.5 75.4 222.5 74.7 222.5 74 222.5 73.2 222.5 72.3 222.5 71.5 222.5 70.6 222.5 69.7 222.5 69 222.5 68.4 221.9 68.4 221.4 68.4 221.4 69.3 221.4 70 221.4 70.8 221.4 71.4 221.4 72.4 221.4 73.3 221.4 74 221.4 74.9 221.4 75.7 221.4 76.3"/><path class="k" d="M222,65.3c-.4,0-.7,.3-.7,.7s.3,.7,.7,.7,.7-.3,.7-.7-.3-.7-.7-.7Z"/><polygon class="j" points="111 74.9 107.3 65.5 107.3 65.4 105.7 65.4 105.7 76.4 106.8 76.4 106.8 67.1 110.5 76.4 111.6 76.4 115.2 67.1 115.2 76.4 116.4 76.4 116.4 65.4 114.7 65.4 111 74.9"/><path class="i" d="M94.4,65.2h1.2l4.4,11.2h-1.1l-1.4-3.5h-5.1l-1.4,3.5h-1.1l4.5-11.2Zm-1.7,6.8h4.4l-2.2-5.7-2.2,5.7Z"/></g><g><path class="k" d="M211.1,28.2c-5.5,0-11.1,3.8-11.1,12.4s5.6,12.4,11.1,12.4,11.1-3.8,11.1-12.4-5.6-12.4-11.1-12.4Zm7.9,12.4c0,4.6-2.5,9.6-7.9,9.6s-7.9-5-7.9-9.6,2.5-9.6,7.9-9.6,7.9,5,7.9,9.6Z"/><polygon class="k" points="182.9 52.3 186.1 52.3 186.1 46.8 186.1 44.2 186.1 40.3 186.1 36 186.1 30.5 186.1 25.7 186.1 20 182.9 20 182.9 23.6 182.9 30.5 182.9 35.6 182.9 40.8 182.9 46.4 182.9 52.3"/><polygon class="k" points="192.1 52.3 195.3 52.3 195.3 44.6 195.3 39.1 195.3 34.8 195.3 29.6 195.3 23.6 195.3 20 192.1 20 192.1 23.6 192.1 29.2 192.1 33 192.1 38.6 192.1 45.1 192.1 52.3"/><path class="k" d="M173.9,28.9h3.1v23.3h-3.1V28.9Zm1.5-8.5c-1,0-1.9,.9-1.9,1.9s.9,1.9,1.9,1.9,1.9-.8,1.9-1.9-.9-1.9-1.9-1.9Z"/><path class="k" d="M169.2,31.6v-2.8h-4.7v-6.9h-3.2v6.9h-4v2.8h4v15.5c0,2.1,.3,3.4,1.1,4.2,.8,.8,2,1.2,4.1,1.2s.9,0,1.3,0c.4,0,.8,0,1.2,0h.2v-2.8h-.2c-.8,.1-1.6,.2-2.4,.2-1.8-.1-2.1-1-2.1-2.8v-15.3h4.7Z"/><path class="k" d="M148.4,39.2l-3.7-.8c-2.3-.6-4.6-1.5-4.6-3.7s2.7-3.8,5.2-3.8,5.7,1.8,5.8,4.8v.2h3.2v-.2c-.2-4.7-3.5-7.6-8.6-7.6s-8.8,3.3-8.8,6.7,3.2,5.5,6.6,6.4l3.6,.8c2.4,.6,4.9,1.4,4.9,4s-4,4.2-6.1,4.2c-3.9,0-6.4-2.1-6.6-5.6v-.2h-3.2v.2c.4,5.4,3.9,8.3,9.7,8.3s9.4-2.2,9.4-7.1-5.1-6.3-6.7-6.6Z"/><path class="k" d="M132.7,49.5c-1,0-1.4-.5-1.4-1.5v-12.2c0-5-2.9-7.6-8.7-7.6s-9.3,2.8-9.5,7.9v.2h3.2v-.2c.1-4.5,3.8-5.1,6-5.1,4,0,5.8,1.4,5.8,4.5s-1,2.6-3.4,2.9c-.4,0-.8,0-1.3,.1-5.5,.6-11.3,1.3-11.3,7.5s3,6.9,7.9,6.9,6.4-1.6,8.3-4.4c0,1.9,.5,3.7,3.5,3.7s1.2,0,1.9-.2h.2v-2.9h-.3c-.2,.2-.5,.3-.8,.3Zm-4.7-9.5v3.2c0,1.8-.6,3.5-1.9,4.7-1.4,1.5-3.6,2.3-6,2.3s-4.9-1.5-4.9-4.3,3.9-4.1,8.1-4.7c.8-.1,1.6-.2,2.4-.4,.6-.1,1.7-.3,2.2-.8Z"/><path class="k" d="M105.7,43.8c-.3,3.7-3.1,6.4-6.5,6.4-5.4,0-7.9-5-7.9-9.6s2.5-9.6,7.9-9.6,5.5,1.9,6.3,5.4v.2h3.2v-.2c-.6-5.1-4.2-8.1-9.5-8.1s-11.1,3.8-11.1,12.4,5.6,12.4,11.1,12.4,8.9-3.5,9.7-9.1v-.2h-3.2v.2Z"/></g><rect class="i" x="73" y="18.7" width="1.8" height="75.8"/><path class="h" d="M58.4,52.3c0-12-8.6-13.1-15.1-7.8-4.1,3.4-9.4,9.5-9.4,3.7,0-13.8-13.8-7.7-23,4.2v12.8c9.2-11.9,23-18,23-4.1s5.3-.3,9.4-3.7c5.9-4.8,13.5-4.3,14.8,4.8h.2v-9.8h0Z"/><path class="g" d="M58.4,35.5c0-12-8.6-13.1-15.1-7.8-4.1,3.4-9.4,9.5-9.4,3.7,0-13.8-13.8-7.7-23,4.1v12.2c9.3-11.2,23-17.3,23-3.5s5.3-.3,9.4-3.7c5.9-4.8,13.5-4.3,14.8,4.8h.2v-9.8h0Z"/></svg>